SplineFontDB: 3.0
FontName: Snellen
FullName: Snellen
FamilyName: Snellen
Weight: Medium
Copyright: Copyright (c) 2018 by David Dunn with FontForge 2.0 (http://fontforge.sf.net)
Version: Release 1.0
ItalicAngle: 0
UnderlinePosition: -179
UnderlineWidth: 71
Ascent: 778
Descent: 246
InvalidEm: 0
sfntRevision: 0x00010000
LayerCount: 2
Layer: 0 1 "Back" 1
Layer: 1 1 "Fore" 0
XUID: [1021 135 -303383518 11937]
StyleMap: 0x0040
FSType: 4
OS2Version: 4
OS2_WeightWidthSlopeOnly: 0
OS2_UseTypoMetrics: 1
CreationTime: 1241032827
ModificationTime: 1543616511
PfmFamily: 17
TTFWeight: 500
TTFWidth: 5
LineGap: 92
VLineGap: 0
Panose: 2 0 6 9 0 0 0 0 0 0
OS2TypoAscent: 1024
OS2TypoAOffset: 0
OS2TypoDescent: -246
OS2TypoDOffset: 0
OS2TypoLinegap: 92
OS2WinAscent: 1024
OS2WinAOffset: 0
OS2WinDescent: 0
OS2WinDOffset: 0
HheadAscent: 1024
HheadAOffset: 0
HheadDescent: 0
HheadDOffset: 0
OS2SubXSize: 665
OS2SubYSize: 716
OS2SubXOff: 0
OS2SubYOff: 143
OS2SupXSize: 665
OS2SupYSize: 716
OS2SupXOff: 0
OS2SupYOff: 491
OS2StrikeYSize: 51
OS2StrikeYPos: 265
OS2CapHeight: 1024
OS2XHeight: 1024
OS2FamilyClass: 1030
OS2Vendor: 'PfEd'
OS2CodePages: 00000001.00000000
OS2UnicodeRanges: 00000001.00000000.00000000.00000000
MarkAttachClasses: 1
DEI: 91125
ShortTable: cvt  2
  34
  648
EndShort
ShortTable: maxp 16
  1
  0
  55
  107
  5
  0
  0
  2
  0
  1
  1
  0
  64
  46
  0
  0
EndShort

StartChar: .notdef
Encoding: 65536 -1 0
Width: 1227
Flags: W
LayerCount: 2
Fore
SplineSet
34 0 m 1,0,-1
 34 682 l 1,1,-1
 306 682 l 1,2,-1
 306 0 l 1,3,-1
 34 0 l 1,0,-1
68 34 m 1,4,-1
 272 34 l 1,5,-1
 272 648 l 1,6,-1
 68 648 l 1,7,-1
 68 34 l 1,4,-1
EndSplineSet
Validated: 1
EndChar

StartChar: A
Encoding: 65 65 3
Width: 1227
Flags: W
LayerCount: 2
Fore
SplineSet
512 728 m 5,0,-1
 385 410 l 5,1,-1
 639 410 l 5,2,-1
 512 728 l 5,0,-1
410 1024 m 5,3,-1
 614 1024 l 5,4,-1
 942 205 l 5,5,-1
 1024 205 l 5,6,-1
 1024 0 l 5,7,-1
 803 0 l 5,8,-1
 720 205 l 5,9,-1
 304 205 l 5,10,-1
 221 0 l 5,11,-1
 0 0 l 5,12,-1
 0 205 l 5,13,-1
 82 205 l 5,14,-1
 410 1024 l 5,3,-1
EndSplineSet
Validated: 1
EndChar

StartChar: B
Encoding: 66 66 4
Width: 1227
Flags: W
LayerCount: 2
Fore
SplineSet
614 819 m 6,0,-1
 575 819 l 5,1,-1
 410 819 l 5,2,-1
 410 614 l 5,3,-1
 565 614 l 5,4,-1
 614 614 l 6,5,6
 635 614 635 614 653 622 c 4,7,8
 675 632 675 632 687 644 c 4,9,10
 702 661 702 661 709 677 c 4,11,12
 717 698 717 698 717 716 c 4,13,14
 717 736 717 736 709 755 c 4,15,16
 700 775 700 775 687 788 c 4,17,18
 670 805 670 805 653 810 c 4,19,20
 629 819 629 819 614 819 c 6,0,-1
565 0 m 5,21,-1
 0 0 l 5,22,-1
 0 205 l 5,23,-1
 205 205 l 5,24,-1
 205 819 l 5,25,-1
 0 819 l 5,26,-1
 0 1024 l 5,27,-1
 410 1024 l 5,28,-1
 569 1024 l 5,29,-1
 614 1024 l 5,30,31
 708 1011 708 1011 732 1000 c 4,32,33
 789 978 789 978 831 934 c 4,34,35
 878 885 878 885 898 835 c 4,36,37
 922 778 922 778 922 717 c 4,38,39
 922 660 922 660 898 599 c 4,40,41
 881 553 881 553 844 513 c 5,42,-1
 844 512 l 5,43,44
 882 468 882 468 898 425 c 4,45,46
 922 360 922 360 922 307 c 4,47,48
 922 248 922 248 898 189 c 4,49,50
 876 135 876 135 831 90 c 4,51,52
 789 46 789 46 732 24 c 4,53,54
 702 12 702 12 614 0 c 5,55,-1
 565 0 l 5,21,-1
614 410 m 6,56,-1
 575 410 l 5,57,-1
 410 410 l 5,58,-1
 410 205 l 5,59,-1
 565 205 l 5,60,-1
 614 205 l 6,61,62
 635 205 635 205 653 213 c 4,63,64
 675 223 675 223 687 235 c 4,65,66
 702 252 702 252 709 268 c 4,67,68
 717 289 717 289 717 307 c 4,69,70
 717 327 717 327 709 346 c 4,71,72
 700 366 700 366 687 379 c 4,73,74
 670 396 670 396 653 401 c 4,75,76
 629 410 629 410 614 410 c 6,56,-1
EndSplineSet
Validated: 1
EndChar

StartChar: C
Encoding: 67 67 5
Width: 1227
Flags: W
LayerCount: 2
Fore
SplineSet
795 393 m 2,0,1
 801 410 l 1,2,-1
 1024 410 l 1,3,-1
 985 315 l 2,4,5
 945 220 945 220 872 152 c 1,6,7
 804 79 804 79 709 39 c 0,8,9
 614 0 614 0 512 0 c 128,-1,10
 410 0 410 0 315 39 c 0,11,12
 222 79 222 79 151 151 c 0,13,14
 79 222 79 222 39 315 c 0,15,16
 0 410 0 410 0 512 c 128,-1,17
 0 614 0 614 39 709 c 0,18,19
 79 802 79 802 151 873 c 0,20,21
 222 945 222 945 315 985 c 0,22,23
 410 1024 410 1024 512 1024 c 128,-1,24
 614 1024 614 1024 709 985 c 0,25,26
 801 946 801 946 819 922 c 1,27,-1
 819 1024 l 1,28,-1
 1024 1024 l 1,29,-1
 1024 614 l 1,30,-1
 801 614 l 1,31,-1
 795 631 l 2,32,33
 773 685 773 685 729 729 c 128,-1,34
 685 773 685 773 631 795 c 0,35,36
 574 819 574 819 512 819 c 128,-1,37
 450 819 450 819 393 795 c 0,38,39
 339 773 339 773 295 729 c 128,-1,40
 251 685 251 685 229 631 c 0,41,42
 205 574 205 574 205 512 c 128,-1,43
 205 450 205 450 229 393 c 0,44,45
 251 339 251 339 295 295 c 128,-1,46
 339 251 339 251 393 229 c 0,47,48
 450 205 450 205 512 205 c 128,-1,49
 574 205 574 205 631 229 c 0,50,51
 685 251 685 251 729 295 c 128,-1,52
 773 339 773 339 795 393 c 2,0,1
EndSplineSet
Validated: 1
EndChar

StartChar: D
Encoding: 68 68 6
Width: 1227
Flags: W
LayerCount: 2
Fore
SplineSet
512 205 m 2,0,1
 574 205 574 205 631 229 c 0,2,3
 685 251 685 251 729 295 c 128,-1,4
 773 339 773 339 795 393 c 0,5,6
 819 450 819 450 819 512 c 128,-1,7
 819 574 819 574 795 631 c 0,8,9
 773 685 773 685 729 729 c 128,-1,10
 685 773 685 773 631 795 c 0,11,12
 574 819 574 819 512 819 c 2,13,-1
 410 819 l 1,14,-1
 410 205 l 1,15,-1
 463 205 l 1,16,-1
 512 205 l 2,0,1
512 0 m 2,17,-1
 383 0 l 1,18,-1
 0 0 l 1,19,-1
 0 205 l 1,20,-1
 205 205 l 1,21,-1
 205 819 l 1,22,-1
 0 819 l 1,23,-1
 0 1024 l 1,24,-1
 512 1024 l 2,25,26
 614 1024 614 1024 709 985 c 0,27,28
 802 945 802 945 873 873 c 0,29,30
 945 802 945 802 985 709 c 0,31,32
 1024 614 1024 614 1024 512 c 128,-1,33
 1024 410 1024 410 985 315 c 0,34,35
 945 222 945 222 873 151 c 0,36,37
 802 79 802 79 709 39 c 0,38,39
 614 0 614 0 512 0 c 2,17,-1
EndSplineSet
Validated: 1
EndChar

StartChar: E
Encoding: 69 69 7
Width: 1227
Flags: W
LayerCount: 2
Fore
SplineSet
0 1024 m 1,0,-1
 1024 1024 l 1,1,-1
 1024 614 l 1,2,-1
 819 614 l 1,3,-1
 819 819 l 1,4,-1
 410 819 l 1,5,-1
 410 614 l 1,6,-1
 614 614 l 1,7,-1
 614 410 l 1,8,-1
 410 410 l 1,9,-1
 410 205 l 1,10,-1
 819 205 l 1,11,-1
 819 410 l 1,12,-1
 1024 410 l 1,13,-1
 1024 0 l 1,14,-1
 0 0 l 1,15,-1
 0 205 l 1,16,-1
 205 205 l 1,17,-1
 205 819 l 1,18,-1
 0 819 l 1,19,-1
 0 1024 l 1,0,-1
EndSplineSet
Validated: 1
EndChar

StartChar: F
Encoding: 70 70 8
Width: 1227
Flags: W
LayerCount: 2
Fore
SplineSet
410 205 m 1,0,-1
 614 205 l 1,1,-1
 614 0 l 1,2,-1
 0 0 l 1,3,-1
 0 205 l 1,4,-1
 205 205 l 1,5,-1
 205 819 l 1,6,-1
 0 819 l 1,7,-1
 0 1024 l 1,8,-1
 1024 1024 l 1,9,-1
 1024 614 l 1,10,-1
 819 614 l 1,11,-1
 819 819 l 1,12,-1
 410 819 l 1,13,-1
 410 614 l 1,14,-1
 614 614 l 1,15,-1
 614 410 l 1,16,-1
 410 410 l 1,17,-1
 410 205 l 1,0,-1
EndSplineSet
Validated: 1
EndChar

StartChar: G
Encoding: 71 71 9
Width: 1227
Flags: W
LayerCount: 2
Fore
SplineSet
732 725 m 1,0,-1
 729 729 l 2,1,2
 699 767 699 767 631 795 c 0,3,4
 571 819 571 819 512 819 c 128,-1,5
 453 819 453 819 393 795 c 0,6,7
 337 771 337 771 295 729 c 128,-1,8
 253 687 253 687 229 631 c 0,9,10
 205 571 205 571 205 512 c 128,-1,11
 205 453 205 453 229 393 c 0,12,13
 253 337 253 337 295 295 c 128,-1,14
 337 253 337 253 393 229 c 0,15,16
 453 205 453 205 512 205 c 128,-1,17
 571 205 571 205 631 229 c 0,18,19
 687 253 687 253 729 295 c 2,20,-1
 763 333 l 1,21,-1
 614 332 l 1,22,-1
 614 513 l 1,23,-1
 1024 512 l 1,24,-1
 1024 0 l 1,25,-1
 819 0 l 1,26,-1
 819 102 l 1,27,28
 801 78 801 78 709 39 c 0,29,30
 614 0 614 0 512 0 c 128,-1,31
 410 0 410 0 315 39 c 0,32,33
 223 77 223 77 151 151 c 0,34,35
 77 223 77 223 39 315 c 0,36,37
 0 410 0 410 0 512 c 128,-1,38
 0 614 0 614 39 709 c 0,39,40
 77 801 77 801 151 873 c 0,41,42
 223 947 223 947 315 985 c 0,43,44
 410 1024 410 1024 512 1024 c 0,45,46
 616 1024 616 1024 709 985 c 0,47,48
 790 951 790 951 872 872 c 0,49,50
 923 824 923 824 975 730 c 2,51,-1
 978 725 l 1,52,-1
 732 725 l 1,0,-1
EndSplineSet
Validated: 1
EndChar

StartChar: H
Encoding: 72 72 10
Width: 1227
Flags: W
LayerCount: 2
Fore
SplineSet
0 1024 m 1,0,-1
 205 1024 l 1,1,-1
 205 614 l 1,2,-1
 819 614 l 1,3,-1
 819 1024 l 1,4,-1
 1024 1024 l 1,5,-1
 1024 0 l 1,6,-1
 819 0 l 1,7,-1
 819 410 l 1,8,-1
 205 410 l 1,9,-1
 205 0 l 1,10,-1
 0 0 l 1,11,-1
 0 1024 l 1,0,-1
EndSplineSet
Validated: 1
EndChar

StartChar: I
Encoding: 73 73 11
Width: 1227
Flags: W
LayerCount: 2
Fore
SplineSet
205 0 m 1,0,-1
 205 205 l 1,1,-1
 410 205 l 1,2,-1
 410 819 l 1,3,-1
 205 819 l 1,4,-1
 205 1024 l 1,5,-1
 819 1024 l 1,6,-1
 819 819 l 1,7,-1
 614 819 l 1,8,-1
 614 205 l 1,9,-1
 819 205 l 1,10,-1
 819 0 l 1,11,-1
 205 0 l 1,0,-1
EndSplineSet
Validated: 1
EndChar

StartChar: J
Encoding: 74 74 12
Width: 1227
Flags: W
LayerCount: 2
Fore
SplineSet
205 512 m 1,0,1
 205 463 205 463 220 394 c 0,2,3
 231 346 231 346 265 295 c 0,4,5
 295 249 295 249 331 228 c 0,6,7
 369 205 369 205 409 205 c 0,8,9
 452 205 452 205 488 228 c 0,10,11
 527 254 527 254 554 295 c 0,12,13
 584 340 584 340 599 394 c 0,14,15
 614 451 614 451 614 614 c 2,16,-1
 614 819 l 1,17,-1
 410 819 l 1,18,-1
 410 1024 l 1,19,-1
 1024 1024 l 1,20,-1
 1024 819 l 1,21,-1
 819 819 l 1,22,-1
 819 614 l 2,23,24
 819 410 819 410 788 316 c 0,25,26
 759 227 759 227 698 151 c 0,27,28
 633 71 633 71 567 35 c 0,29,30
 502 0 502 0 409 0 c 0,31,32
 328 0 328 0 253 39 c 0,33,34
 184 74 184 74 121 151 c 0,35,36
 62 223 62 223 31 316 c 132,-1,37
 0 409 0 409 0 512 c 1,38,-1
 205 512 l 1,0,1
EndSplineSet
Validated: 1
EndChar

StartChar: K
Encoding: 75 75 13
Width: 1227
Flags: W
LayerCount: 2
Fore
SplineSet
205 1024 m 1,0,-1
 410 1024 l 1,1,-1
 410 649 l 1,2,-1
 749 1024 l 1,3,-1
 1024 1024 l 1,4,-1
 842 819 l 1,5,-1
 570 512 l 1,6,-1
 842 205 l 1,7,-1
 1024 205 l 1,8,-1
 1024 0 l 1,9,-1
 749 0 l 1,10,-1
 410 376 l 1,11,-1
 410 0 l 1,12,-1
 205 0 l 1,13,-1
 0 0 l 1,14,-1
 0 205 l 1,15,-1
 205 205 l 1,16,-1
 205 818 l 1,17,-1
 0 819 l 1,18,-1
 0 1024 l 1,19,-1
 205 1024 l 1,0,-1
EndSplineSet
Validated: 1
EndChar

StartChar: L
Encoding: 76 76 14
Width: 1227
Flags: W
LayerCount: 2
Fore
SplineSet
0 1024 m 1,0,-1
 614 1024 l 1,1,-1
 614 819 l 1,2,-1
 410 819 l 1,3,-1
 410 205 l 1,4,-1
 819 205 l 1,5,-1
 819 410 l 1,6,-1
 1024 410 l 1,7,-1
 1024 0 l 1,8,-1
 0 0 l 1,9,-1
 0 205 l 1,10,-1
 205 205 l 1,11,-1
 205 819 l 1,12,-1
 0 819 l 1,13,-1
 0 1024 l 1,0,-1
EndSplineSet
Validated: 1
EndChar

StartChar: M
Encoding: 77 77 15
Width: 1227
Flags: W
LayerCount: 2
Fore
SplineSet
0 0 m 1028,0,-1
0 0 m 5,1,-1
 0 1024 l 5,2,-1
 205 1024 l 5,3,-1
 512 614 l 5,4,-1
 819 1024 l 5,5,-1
 1024 1024 l 5,6,-1
 1024 0 l 5,7,-1
 819 0 l 5,8,-1
 819 680 l 5,9,-1
 614 410 l 5,10,-1
 410 410 l 5,11,-1
 205 680 l 5,12,-1
 205 0 l 5,13,-1
 0 0 l 5,1,-1
EndSplineSet
Validated: 1
EndChar

StartChar: N
Encoding: 78 78 16
Width: 1227
Flags: W
LayerCount: 2
Fore
SplineSet
0 1024 m 1,0,-1
 205 1024 l 1,1,-1
 819 313 l 1,2,-1
 819 819 l 1,3,-1
 614 819 l 1,4,-1
 614 1024 l 1,5,-1
 1024 1024 l 1,6,-1
 1024 0 l 1,7,-1
 819 0 l 1,8,-1
 205 711 l 1,9,-1
 205 205 l 1,10,-1
 410 205 l 1,11,-1
 410 0 l 1,12,-1
 0 0 l 1,13,-1
 0 1024 l 1,0,-1
EndSplineSet
Validated: 1
EndChar

StartChar: O
Encoding: 79 79 17
Width: 1227
Flags: W
LayerCount: 2
Fore
SplineSet
512 819 m 132,-1,1
 452 819 452 819 394 796 c 4,2,3
 338 772 338 772 295 729 c 132,-1,4
 252 686 252 686 228 630 c 4,5,6
 205 572 205 572 205 512 c 132,-1,7
 205 452 205 452 228 394 c 4,8,9
 252 338 252 338 295 295 c 132,-1,10
 338 252 338 252 394 228 c 4,11,12
 452 205 452 205 512 205 c 132,-1,13
 572 205 572 205 630 228 c 4,14,15
 686 252 686 252 729 295 c 132,-1,16
 772 338 772 338 796 394 c 4,17,18
 819 452 819 452 819 512 c 132,-1,19
 819 572 819 572 796 630 c 4,20,21
 772 686 772 686 729 729 c 132,-1,22
 686 772 686 772 630 796 c 4,23,0
 572 819 572 819 512 819 c 132,-1,1
512 1024 m 132,-1,25
 614 1024 614 1024 708 985 c 132,-1,26
 802 946 802 946 873 873 c 4,27,28
 946 802 946 802 985 708 c 132,-1,29
 1024 614 1024 614 1024 512 c 132,-1,30
 1024 410 1024 410 985 316 c 132,-1,31
 946 222 946 222 873 151 c 4,32,33
 802 78 802 78 708 39 c 132,-1,34
 614 0 614 0 512 0 c 132,-1,35
 410 0 410 0 316 39 c 132,-1,36
 222 78 222 78 151 151 c 4,37,38
 78 222 78 222 39 316 c 132,-1,39
 0 410 0 410 0 512 c 132,-1,40
 0 614 0 614 39 708 c 132,-1,41
 78 802 78 802 151 873 c 4,42,43
 222 946 222 946 316 985 c 132,-1,24
 410 1024 410 1024 512 1024 c 132,-1,25
EndSplineSet
Validated: 1
EndChar

StartChar: P
Encoding: 80 80 18
Width: 1227
Flags: W
LayerCount: 2
Fore
SplineSet
614 819 m 2,0,-1
 575 819 l 1,1,-1
 410 819 l 1,2,-1
 410 614 l 1,3,-1
 565 614 l 1,4,-1
 614 614 l 2,5,6
 641 617 641 617 653 623 c 0,7,8
 670 628 670 628 687 645 c 0,9,10
 702 662 702 662 709 678 c 0,11,12
 717 697 717 697 717 717 c 0,13,14
 717 735 717 735 709 756 c 0,15,16
 702 772 702 772 687 789 c 0,17,18
 672 804 672 804 653 811 c 0,19,20
 634 819 634 819 614 819 c 2,0,-1
614 1024 m 2,21,22
 676 1024 676 1024 732 1000 c 0,23,24
 788 978 788 978 831 934 c 0,25,26
 875 888 875 888 898 835 c 0,27,28
 922 778 922 778 922 717 c 128,-1,29
 922 656 922 656 898 599 c 0,30,31
 875 543 875 543 831 500 c 0,32,33
 788 456 788 456 732 433 c 0,34,35
 705 422 705 422 614 410 c 1,36,-1
 565 410 l 1,37,-1
 410 410 l 1,38,-1
 410 205 l 1,39,-1
 614 205 l 1,40,-1
 614 0 l 1,41,-1
 0 0 l 1,42,-1
 0 205 l 1,43,-1
 205 205 l 1,44,-1
 205 819 l 1,45,-1
 0 819 l 1,46,-1
 0 1024 l 1,47,-1
 569 1024 l 1,48,-1
 614 1024 l 2,21,22
EndSplineSet
Validated: 1
EndChar

StartChar: Q
Encoding: 81 81 19
Width: 1227
Flags: W
LayerCount: 2
Fore
SplineSet
1024 0 m 1,0,-1
 823 0 l 1,1,-1
 761 65 l 1,2,3
 628 0 628 0 512 0 c 0,4,5
 504 0 504 0 496 0 c 0,6,7
 490 0 490 0 483 0 c 0,8,9
 477 0 477 0 471 0 c 0,10,11
 405 0 405 0 315 39 c 0,12,13
 223 79 223 79 151 151 c 0,14,15
 76 226 76 226 39 316 c 0,16,17
 0 411 0 411 0 512 c 0,18,19
 0 615 0 615 39 708 c 0,20,21
 77 799 77 799 151 873 c 128,-1,22
 225 947 225 947 316 985 c 0,23,24
 409 1024 409 1024 512 1024 c 128,-1,25
 615 1024 615 1024 708 985 c 0,26,27
 799 947 799 947 873 873 c 128,-1,28
 947 799 947 799 985 708 c 0,29,30
 1024 615 1024 615 1024 512 c 0,31,32
 1024 426 1024 426 985 316 c 0,33,34
 963 255 963 255 911 196 c 1,35,-1
 1024 74 l 1,36,-1
 1024 0 l 1,0,-1
771 345 m 1,37,38
 787 367 787 367 796 394 c 0,39,40
 819 478 819 478 819 512 c 0,41,42
 819 572 819 572 796 630 c 0,43,44
 772 686 772 686 729 729 c 128,-1,45
 686 772 686 772 630 796 c 0,46,47
 572 819 572 819 512 819 c 128,-1,48
 452 819 452 819 394 796 c 0,49,50
 338 772 338 772 295 729 c 128,-1,51
 252 686 252 686 228 630 c 0,52,53
 205 572 205 572 205 512 c 128,-1,54
 205 452 205 452 228 394 c 0,55,56
 252 338 252 338 295 295 c 0,57,58
 341 249 341 249 394 228 c 0,59,60
 452 205 452 205 512 205 c 0,61,62
 515 205 515 205 517 205 c 0,63,64
 522 205 l 2,65,66
 524 204 524 204 526 204 c 0,67,68
 568 204 568 204 616 223 c 1,69,-1
 485 367 l 1,70,-1
 614 512 l 1,71,-1
 771 345 l 1,37,38
EndSplineSet
Validated: 1
EndChar

StartChar: R
Encoding: 82 82 20
Width: 1227
Flags: W
LayerCount: 2
Fore
SplineSet
482 410 m 1,0,-1
 410 410 l 1,1,-1
 410 205 l 1,2,-1
 409 205 l 1,3,-1
 410 0 l 1,4,-1
 0 0 l 1,5,-1
 0 205 l 1,6,-1
 205 205 l 1,7,-1
 205 819 l 1,8,-1
 0 819 l 1,9,-1
 0 1024 l 1,10,-1
 569 1024 l 1,11,-1
 614 1024 l 1,12,13
 703 1012 703 1012 732 1000 c 0,14,15
 791 976 791 976 831 934 c 0,16,17
 878 885 878 885 898 835 c 0,18,19
 922 778 922 778 922 717 c 0,20,21
 922 661 922 661 898 599 c 0,22,23
 878 547 878 547 831 500 c 0,24,25
 806 475 806 475 719 429 c 1,26,-1
 1024 0 l 5,27,-1
 770 0 l 5,28,-1
 482 410 l 1,0,-1
614 819 m 2,29,-1
 575 819 l 1,30,-1
 410 819 l 1,31,-1
 410 614 l 1,32,-1
 565 614 l 1,33,-1
 614 614 l 2,34,35
 641 617 641 617 653 623 c 0,36,37
 670 628 670 628 687 645 c 0,38,39
 702 662 702 662 709 678 c 0,40,41
 717 697 717 697 717 717 c 0,42,43
 717 735 717 735 709 756 c 0,44,45
 702 772 702 772 687 789 c 0,46,47
 672 804 672 804 653 811 c 0,48,49
 634 819 634 819 614 819 c 2,29,-1
EndSplineSet
Validated: 1
EndChar

StartChar: S
Encoding: 83 83 21
Width: 1227
Flags: W
LayerCount: 2
Fore
SplineSet
719 0 m 2,0,1
 307 0 l 0,2,3
 246 0 246 0 189 24 c 0,4,5
 134 46 134 46 90 90 c 256,6,7
 46 134 46 134 24 189 c 0,8,9
 0 246 0 246 0 307 c 2,10,-1
 0 309 l 1,11,-1
 205 309 l 1,12,-1
 205 307 l 2,13,14
 205 289 205 289 213 268 c 0,15,16
 219 253 219 253 236 236 c 152,-1,17
 253 219 253 219 268 213 c 0,18,19
 289 205 289 205 307 205 c 2,20,-1
 717 205 l 1,21,-1
 719 205 l 2,22,23
 737 205 737 205 758 213 c 0,24,25
 777 220 777 220 791 236 c 0,26,27
 806 249 806 249 813 268 c 0,28,29
 821 285 821 285 821 307 c 128,-1,30
 821 329 821 329 813 346 c 0,31,32
 806 364 806 364 791 379 c 0,33,34
 778 392 778 392 758 401 c 256,35,36
 738 410 738 410 719 410 c 2,37,-1
 308 410 l 1,38,-1
 307 410 l 2,39,40
 241 410 241 410 189 433 c 0,41,42
 129 461 129 461 90 500 c 0,43,44
 46 544 46 544 24 599 c 0,45,46
 0 656 0 656 0 717 c 128,-1,47
 0 778 0 778 24 835 c 0,48,49
 46 890 46 890 90 934 c 256,50,51
 134 978 134 978 189 1000 c 0,52,53
 246 1024 246 1024 307 1024 c 2,54,-1
 717 1024 l 2,55,56
 778 1024 778 1024 835 1000 c 0,57,58
 890 978 890 978 934 934 c 256,59,60
 978 890 978 890 1000 835 c 0,61,62
 1024 778 1024 778 1024 717 c 2,63,-1
 1024 715 l 1,64,-1
 819 715 l 1,65,-1
 819 717 l 2,66,67
 819 735 819 735 811 756 c 0,68,69
 805 771 805 771 788 788 c 152,-1,70
 771 805 771 805 756 811 c 0,71,72
 735 819 735 819 717 819 c 2,73,-1
 307 819 l 2,74,75
 289 819 289 819 268 811 c 0,76,77
 250 804 250 804 235 789 c 128,-1,78
 220 774 220 774 213 756 c 0,79,80
 205 735 205 735 205 717 c 128,-1,81
 205 699 205 699 213 678 c 0,82,83
 220 659 220 659 236 645 c 0,84,85
 247 633 247 633 268 623 c 0,86,87
 288 614 288 614 307 614 c 2,88,-1
 308 614 l 1,89,-1
 719 614 l 2,90,91
 782 614 782 614 837 591 c 0,92,93
 889 569 889 569 936 524 c 0,94,95
 980 482 980 482 1002 425 c 0,96,97
 1026 368 1026 368 1026 307 c 128,-1,98
 1026 246 1026 246 1002 189 c 0,99,100
 980 134 980 134 936 90 c 256,101,102
 892 46 892 46 837 24 c 0,103,104
 780 0 780 0 719 0 c 2,0,1
EndSplineSet
Validated: 1
EndChar

StartChar: T
Encoding: 84 84 22
Width: 1227
Flags: W
LayerCount: 2
Fore
SplineSet
819 819 m 1024,0,-1
819 819 m 1024,1,-1
0 1024 m 1,2,-1
 1024 1024 l 1,3,-1
 1024 614 l 1,4,-1
 819 614 l 1,5,-1
 819 819 l 1,6,-1
 614 819 l 1,7,-1
 614 205 l 1,8,-1
 819 205 l 1,9,-1
 819 0 l 1,10,-1
 205 0 l 1,11,-1
 205 205 l 1,12,-1
 410 205 l 1,13,-1
 410 819 l 1,14,-1
 205 819 l 1,15,-1
 205 614 l 1,16,-1
 0 614 l 1,17,-1
 0 1024 l 1,2,-1
EndSplineSet
Validated: 1
EndChar

StartChar: U
Encoding: 85 85 23
Width: 1227
Flags: W
LayerCount: 2
Fore
SplineSet
796 394 m 0,0,1
 819 451 819 451 819 614 c 2,2,-1
 819 1024 l 1,3,-1
 1024 1024 l 1,4,-1
 1024 614 l 2,5,6
 1024 410 1024 410 985 316 c 0,7,8
 947 225 947 225 873 151 c 128,-1,9
 799 77 799 77 708 39 c 0,10,11
 614 0 614 0 512 0 c 128,-1,12
 410 0 410 0 316 39 c 0,13,14
 225 77 225 77 151 151 c 0,15,16
 73 229 73 229 39 316 c 0,17,18
 0 416 0 416 0 614 c 2,19,-1
 0 1024 l 1,20,-1
 205 1024 l 1,21,-1
 205 614 l 2,22,23
 205 450 205 450 228 394 c 0,24,25
 250 340 250 340 295 295 c 0,26,27
 341 249 341 249 394 228 c 0,28,29
 452 205 452 205 512 205 c 0,30,31
 576 205 576 205 630 228 c 0,32,33
 686 252 686 252 729 295 c 0,34,35
 776 342 776 342 796 394 c 0,0,1
EndSplineSet
Validated: 1
EndChar

StartChar: V
Encoding: 86 86 24
Width: 1227
Flags: W
LayerCount: 2
Fore
SplineSet
512 298 m 5,0,-1
 803 1024 l 5,1,-1
 1024 1024 l 5,2,-1
 1024 819 l 5,3,-1
 942 819 l 5,4,-1
 614 0 l 5,5,-1
 410 0 l 5,6,-1
 82 819 l 5,7,-1
 0 819 l 5,8,-1
 0 1024 l 5,9,-1
 221 1024 l 5,10,-1
 512 298 l 5,0,-1
EndSplineSet
Validated: 1
EndChar

StartChar: W
Encoding: 87 87 25
Width: 1227
Flags: W
LayerCount: 2
Fore
SplineSet
1024 1024 m 1,0,-1
 950 0 l 1,1,-1
 612 0 l 1,2,-1
 510 307 l 1,3,-1
 408 0 l 1,4,-1
 70 0 l 1,5,-1
 -2 1024 l 1,6,-1
 207 1024 l 1,7,-1
 263 205 l 1,8,-1
 408 614 l 1,9,-1
 612 614 l 1,10,-1
 761 205 l 1,11,-1
 817 1024 l 1,12,-1
 1024 1024 l 1,0,-1
EndSplineSet
Validated: 1
EndChar

StartChar: X
Encoding: 88 88 26
Width: 1227
Flags: W
LayerCount: 2
Fore
SplineSet
1024 0 m 5,0,-1
 770 0 l 5,1,-1
 512 354 l 5,2,-1
 254 0 l 5,3,-1
 0 0 l 5,4,-1
 0 205 l 5,5,-1
 150 205 l 5,6,-1
 374 512 l 5,7,-1
 150 819 l 5,8,-1
 0 819 l 5,9,-1
 0 1024 l 5,10,-1
 254 1024 l 5,11,-1
 512 669 l 5,12,-1
 770 1024 l 5,13,-1
 1024 1024 l 5,14,-1
 1024 819 l 5,15,-1
 874 819 l 5,16,-1
 650 512 l 5,17,-1
 874 205 l 5,18,-1
 1024 205 l 5,19,-1
 1024 0 l 5,0,-1
EndSplineSet
Validated: 1
EndChar

StartChar: Y
Encoding: 89 89 27
Width: 1227
Flags: W
LayerCount: 2
Fore
SplineSet
410 466 m 5,0,-1
 375 514 l 5,1,-1
 302 613 l 5,2,-1
 150 819 l 5,3,-1
 0 819 l 5,4,-1
 0 1024 l 5,5,-1
 254 1024 l 5,6,-1
 512 669 l 5,7,-1
 770 1024 l 5,8,-1
 1024 1024 l 5,9,-1
 1024 819 l 5,10,-1
 874 819 l 5,11,-1
 651 514 l 5,12,-1
 614 464 l 5,13,-1
 614 0 l 5,14,-1
 410 0 l 5,15,-1
 410 466 l 5,0,-1
EndSplineSet
Validated: 1
EndChar

StartChar: Z
Encoding: 90 90 28
Width: 1227
Flags: W
LayerCount: 2
Fore
SplineSet
311 205 m 1024,0,-1
819 205 m 1024,1,-1
713 819 m 1024,2,-1
819 205 m 1024,3,-1
1024 1024 m 1,4,-1
 1024 819 l 1,5,-1
 313 205 l 1,6,-1
 819 205 l 1,7,-1
 819 410 l 1,8,-1
 1024 410 l 1,9,-1
 1024 0 l 1,10,-1
 0 0 l 1,11,-1
 0 205 l 1,12,-1
 711 819 l 1,13,-1
 205 819 l 1,14,-1
 205 614 l 1,15,-1
 0 614 l 1,16,-1
 0 1024 l 1,17,-1
 1024 1024 l 1,4,-1
EndSplineSet
Validated: 1
EndChar

StartChar: a
Encoding: 97 97 29
Width: 1227
Flags: W
LayerCount: 2
Fore
SplineSet
512 728 m 5,0,-1
 385 410 l 5,1,-1
 639 410 l 5,2,-1
 512 728 l 5,0,-1
410 1024 m 5,3,-1
 614 1024 l 5,4,-1
 942 205 l 5,5,-1
 1024 205 l 5,6,-1
 1024 0 l 5,7,-1
 803 0 l 5,8,-1
 720 205 l 5,9,-1
 304 205 l 5,10,-1
 221 0 l 5,11,-1
 0 0 l 5,12,-1
 0 205 l 5,13,-1
 82 205 l 5,14,-1
 410 1024 l 5,3,-1
EndSplineSet
Validated: 1
EndChar

StartChar: b
Encoding: 98 98 30
Width: 1227
Flags: W
LayerCount: 2
Fore
SplineSet
308 819 m 2,0,1
 293 819 293 819 269 810 c 0,2,3
 252 805 252 805 235 788 c 0,4,5
 222 775 222 775 213 755 c 0,6,7
 205 736 205 736 205 716 c 0,8,9
 205 695 205 695 213 677 c 0,10,11
 220 661 220 661 235 644 c 0,12,13
 247 632 247 632 269 622 c 0,14,15
 287 614 287 614 308 614 c 2,16,-1
 357 614 l 1,17,-1
 512 614 l 1,18,-1
 512 819 l 1,19,-1
 347 819 l 1,20,-1
 308 819 l 2,0,1
357 0 m 1,21,-1
 308 0 l 1,22,23
 216 13 216 13 190 24 c 0,24,25
 133 46 133 46 91 90 c 0,26,27
 44 139 44 139 24 189 c 0,28,29
 0 246 0 246 0 307 c 0,30,31
 0 362 0 362 24 425 c 0,32,33
 40 468 40 468 78 512 c 1,34,-1
 78 513 l 1,35,36
 41 553 41 553 24 599 c 0,37,38
 0 660 0 660 0 717 c 0,39,40
 0 776 0 776 24 835 c 0,41,42
 46 889 46 889 91 934 c 0,43,44
 133 978 133 978 190 1000 c 0,45,46
 221 1012 221 1012 308 1024 c 1,47,-1
 353 1024 l 1,48,-1
 512 1024 l 1,49,-1
 922 1024 l 1,50,-1
 922 819 l 1,51,-1
 717 819 l 1,52,-1
 717 205 l 1,53,-1
 922 205 l 1,54,-1
 922 0 l 1,55,-1
 357 0 l 1,21,-1
308 410 m 2,56,57
 293 410 293 410 269 401 c 0,58,59
 252 396 252 396 235 379 c 0,60,61
 222 366 222 366 213 346 c 0,62,63
 205 327 205 327 205 307 c 0,64,65
 205 286 205 286 213 268 c 0,66,67
 220 252 220 252 235 235 c 0,68,69
 247 223 247 223 269 213 c 0,70,71
 287 205 287 205 308 205 c 2,72,-1
 357 205 l 1,73,-1
 512 205 l 1,74,-1
 512 410 l 1,75,-1
 347 410 l 1,76,-1
 308 410 l 2,56,57
EndSplineSet
Validated: 1
EndChar

StartChar: c
Encoding: 99 99 31
Width: 1227
Flags: W
LayerCount: 2
Fore
SplineSet
229 393 m 2,0,1
 251 339 251 339 295 295 c 128,-1,2
 339 251 339 251 393 229 c 0,3,4
 450 205 450 205 512 205 c 128,-1,5
 574 205 574 205 631 229 c 0,6,7
 685 251 685 251 729 295 c 128,-1,8
 773 339 773 339 795 393 c 0,9,10
 819 450 819 450 819 512 c 128,-1,11
 819 574 819 574 795 631 c 0,12,13
 773 685 773 685 729 729 c 128,-1,14
 685 773 685 773 631 795 c 0,15,16
 574 819 574 819 512 819 c 128,-1,17
 450 819 450 819 393 795 c 0,18,19
 339 773 339 773 295 729 c 128,-1,20
 251 685 251 685 229 631 c 2,21,-1
 223 614 l 1,22,-1
 0 614 l 1,23,-1
 0 1024 l 1,24,-1
 205 1024 l 1,25,-1
 205 922 l 1,26,27
 223 946 223 946 315 985 c 0,28,29
 410 1024 410 1024 512 1024 c 128,-1,30
 614 1024 614 1024 709 985 c 0,31,32
 802 945 802 945 873 873 c 0,33,34
 945 802 945 802 985 709 c 0,35,36
 1024 614 1024 614 1024 512 c 128,-1,37
 1024 410 1024 410 985 315 c 0,38,39
 945 222 945 222 873 151 c 0,40,41
 802 79 802 79 709 39 c 0,42,43
 614 0 614 0 512 0 c 128,-1,44
 410 0 410 0 315 39 c 0,45,46
 220 79 220 79 152 152 c 1,47,48
 79 220 79 220 39 315 c 2,49,-1
 0 410 l 1,50,-1
 223 410 l 1,51,-1
 229 393 l 2,0,1
EndSplineSet
Validated: 1
EndChar

StartChar: d
Encoding: 100 100 32
Width: 1227
Flags: W
LayerCount: 2
Fore
SplineSet
512 205 m 2,0,1
 561 205 l 2,2,-1
 614 205 l 1,3,-1
 614 819 l 1,4,-1
 512 819 l 2,5,6
 450 819 450 819 393 795 c 0,7,8
 339 773 339 773 295 729 c 128,-1,9
 251 685 251 685 229 631 c 0,10,11
 205 574 205 574 205 512 c 128,-1,12
 205 450 205 450 229 393 c 0,13,14
 251 339 251 339 295 295 c 128,-1,15
 339 251 339 251 393 229 c 0,16,17
 450 205 450 205 512 205 c 2,0,1
512 0 m 2,18,19
 410 0 410 0 315 39 c 0,20,21
 222 79 222 79 151 151 c 0,22,23
 79 222 79 222 39 315 c 0,24,25
 0 410 0 410 0 512 c 128,-1,26
 0 614 0 614 39 709 c 0,27,28
 79 802 79 802 151 873 c 0,29,30
 222 945 222 945 315 985 c 0,31,32
 410 1024 410 1024 512 1024 c 2,33,-1
 1024 1024 l 1,34,-1
 1024 819 l 1,35,-1
 819 819 l 1,36,-1
 819 205 l 1,37,-1
 1024 205 l 1,38,-1
 1024 0 l 1,39,-1
 641 0 l 1,40,-1
 512 0 l 2,18,19
EndSplineSet
Validated: 1
EndChar

StartChar: e
Encoding: 101 101 33
Width: 1227
Flags: W
LayerCount: 2
Fore
SplineSet
1024 1024 m 1,0,-1
 1024 819 l 1,1,-1
 819 819 l 1,2,-1
 819 205 l 1,3,-1
 1024 205 l 1,4,-1
 1024 0 l 1,5,-1
 0 0 l 1,6,-1
 0 410 l 1,7,-1
 205 410 l 1,8,-1
 205 205 l 1,9,-1
 614 205 l 1,10,-1
 614 410 l 1,11,-1
 410 410 l 1,12,-1
 410 614 l 1,13,-1
 614 614 l 1,14,-1
 614 819 l 1,15,-1
 205 819 l 1,16,-1
 205 614 l 1,17,-1
 0 614 l 1,18,-1
 0 1024 l 1,19,-1
 1024 1024 l 1,0,-1
EndSplineSet
Validated: 1
EndChar

StartChar: f
Encoding: 102 102 34
Width: 1227
Flags: W
LayerCount: 2
Fore
SplineSet
614 205 m 5,0,-1
 614 410 l 5,1,-1
 410 410 l 5,2,-1
 410 614 l 5,3,-1
 614 614 l 5,4,-1
 614 819 l 5,5,-1
 205 819 l 5,6,-1
 205 614 l 5,7,-1
 0 614 l 5,8,-1
 0 1024 l 5,9,-1
 1024 1024 l 5,10,-1
 1024 819 l 5,11,-1
 819 819 l 5,12,-1
 819 205 l 5,13,-1
 1024 205 l 5,14,-1
 1024 0 l 5,15,-1
 410 0 l 5,16,-1
 410 205 l 5,17,-1
 614 205 l 5,0,-1
EndSplineSet
Validated: 1
EndChar

StartChar: g
Encoding: 103 103 35
Width: 1227
Flags: W
LayerCount: 2
Fore
SplineSet
292 725 m 1,0,-1
 46 725 l 1,1,-1
 49 730 l 2,2,3
 101 824 101 824 152 872 c 0,4,5
 234 951 234 951 315 985 c 0,6,7
 408 1024 408 1024 512 1024 c 0,8,9
 614 1024 614 1024 709 985 c 0,10,11
 801 947 801 947 873 873 c 0,12,13
 947 801 947 801 985 709 c 0,14,15
 1024 614 1024 614 1024 512 c 128,-1,16
 1024 410 1024 410 985 315 c 0,17,18
 947 223 947 223 873 151 c 0,19,20
 801 77 801 77 709 39 c 0,21,22
 614 0 614 0 512 0 c 128,-1,23
 410 0 410 0 315 39 c 0,24,25
 223 78 223 78 205 102 c 1,26,-1
 205 0 l 1,27,-1
 0 0 l 1,28,-1
 0 512 l 1,29,-1
 410 513 l 1,30,-1
 410 332 l 1,31,-1
 261 333 l 1,32,-1
 295 295 l 2,33,34
 337 253 337 253 393 229 c 0,35,36
 453 205 453 205 512 205 c 128,-1,37
 571 205 571 205 631 229 c 0,38,39
 687 253 687 253 729 295 c 128,-1,40
 771 337 771 337 795 393 c 0,41,42
 819 453 819 453 819 512 c 128,-1,43
 819 571 819 571 795 631 c 0,44,45
 771 687 771 687 729 729 c 128,-1,46
 687 771 687 771 631 795 c 0,47,48
 571 819 571 819 512 819 c 128,-1,49
 453 819 453 819 393 795 c 0,50,51
 325 767 325 767 295 729 c 2,52,-1
 292 725 l 1,0,-1
EndSplineSet
Validated: 1
EndChar

StartChar: h
Encoding: 104 104 36
Width: 1227
Flags: W
LayerCount: 2
Fore
SplineSet
1024 1024 m 1,0,-1
 1024 0 l 1,1,-1
 819 0 l 1,2,-1
 819 410 l 1,3,-1
 205 410 l 1,4,-1
 205 0 l 1,5,-1
 0 0 l 1,6,-1
 0 1024 l 1,7,-1
 205 1024 l 1,8,-1
 205 614 l 1,9,-1
 819 614 l 1,10,-1
 819 1024 l 1,11,-1
 1024 1024 l 1,0,-1
EndSplineSet
Validated: 1
EndChar

StartChar: i
Encoding: 105 105 37
Width: 1227
Flags: W
LayerCount: 2
Fore
SplineSet
819 0 m 1,0,-1
 205 0 l 1,1,-1
 205 205 l 1,2,-1
 410 205 l 1,3,-1
 410 819 l 1,4,-1
 205 819 l 1,5,-1
 205 1024 l 1,6,-1
 819 1024 l 1,7,-1
 819 819 l 1,8,-1
 614 819 l 1,9,-1
 614 205 l 1,10,-1
 819 205 l 1,11,-1
 819 0 l 1,0,-1
EndSplineSet
Validated: 1
EndChar

StartChar: j
Encoding: 106 106 38
Width: 1227
Flags: W
LayerCount: 2
Fore
SplineSet
819 512 m 1,0,1
 1024 512 l 1,2,3
 1024 409 1024 409 993 316 c 0,4,5
 962 222 962 222 903 151 c 0,6,7
 840 74 840 74 771 39 c 0,8,9
 696 0 696 0 615 0 c 0,10,11
 522 0 522 0 457 35 c 0,12,13
 391 71 391 71 326 151 c 0,14,15
 265 227 265 227 236 316 c 0,16,17
 205 410 205 410 205 614 c 2,18,-1
 205 819 l 1,19,-1
 0 819 l 1,20,-1
 0 1024 l 1,21,-1
 614 1024 l 1,22,-1
 614 819 l 1,23,-1
 410 819 l 1,24,-1
 410 614 l 2,25,26
 410 451 410 451 425 394 c 0,27,28
 440 340 440 340 470 295 c 0,29,30
 497 254 497 254 536 228 c 0,31,32
 572 205 572 205 615 205 c 0,33,34
 655 205 655 205 693 228 c 0,35,36
 729 249 729 249 759 295 c 0,37,38
 793 346 793 346 804 394 c 0,39,40
 819 463 819 463 819 512 c 1,0,1
EndSplineSet
Validated: 1
EndChar

StartChar: k
Encoding: 107 107 39
Width: 1227
Flags: W
LayerCount: 2
Fore
SplineSet
819 1024 m 1,0,-1
 1024 1024 l 1,1,-1
 1024 819 l 1,2,-1
 819 818 l 1,3,-1
 819 205 l 1,4,-1
 1024 205 l 1,5,-1
 1024 0 l 1,6,-1
 819 0 l 1,7,-1
 614 0 l 1,8,-1
 614 376 l 1,9,-1
 275 0 l 1,10,-1
 0 0 l 1,11,-1
 0 205 l 1,12,-1
 182 205 l 1,13,-1
 454 512 l 1,14,-1
 182 819 l 1,15,-1
 0 1024 l 1,16,-1
 275 1024 l 1,17,-1
 614 649 l 1,18,-1
 614 1024 l 1,19,-1
 819 1024 l 1,0,-1
EndSplineSet
Validated: 1
EndChar

StartChar: l
Encoding: 108 108 40
Width: 1227
Flags: W
LayerCount: 2
Fore
SplineSet
1024 1024 m 1,0,-1
 1024 819 l 1,1,-1
 819 819 l 1,2,-1
 819 205 l 1,3,-1
 1024 205 l 1,4,-1
 1024 0 l 1,5,-1
 0 0 l 1,6,-1
 0 410 l 1,7,-1
 205 410 l 1,8,-1
 205 205 l 1,9,-1
 614 205 l 1,10,-1
 614 819 l 1,11,-1
 410 819 l 1,12,-1
 410 1024 l 1,13,-1
 1024 1024 l 1,0,-1
EndSplineSet
Validated: 1
EndChar

StartChar: m
Encoding: 109 109 41
Width: 1227
Flags: W
LayerCount: 2
Fore
SplineSet
0 0 m 1024,0,-1
0 0 m 1,1,-1
 0 1024 l 1,2,-1
 205 1024 l 1,3,-1
 512 614 l 1,4,-1
 819 1024 l 1,5,-1
 1024 1024 l 1,6,-1
 1024 0 l 1,7,-1
 819 0 l 1,8,-1
 819 680 l 1,9,-1
 614 410 l 1,10,-1
 410 410 l 1,11,-1
 205 680 l 1,12,-1
 205 0 l 1,13,-1
 0 0 l 1,1,-1
EndSplineSet
Validated: 1
EndChar

StartChar: n
Encoding: 110 110 42
Width: 1227
Flags: W
LayerCount: 2
Fore
SplineSet
1024 1024 m 1,0,-1
 1024 0 l 1,1,-1
 614 0 l 1,2,-1
 614 205 l 1,3,-1
 819 205 l 1,4,-1
 819 711 l 1,5,-1
 205 0 l 1,6,-1
 0 0 l 1,7,-1
 0 1024 l 1,8,-1
 410 1024 l 1,9,-1
 410 819 l 1,10,-1
 205 819 l 1,11,-1
 205 313 l 1,12,-1
 819 1024 l 1,13,-1
 1024 1024 l 1,0,-1
EndSplineSet
Validated: 1
EndChar

StartChar: o
Encoding: 111 111 43
Width: 1227
Flags: W
LayerCount: 2
Fore
SplineSet
512 819 m 128,-1,1
 452 819 452 819 394 796 c 0,2,3
 338 772 338 772 295 729 c 128,-1,4
 252 686 252 686 228 630 c 0,5,6
 205 572 205 572 205 512 c 128,-1,7
 205 452 205 452 228 394 c 0,8,9
 252 338 252 338 295 295 c 128,-1,10
 338 252 338 252 394 228 c 0,11,12
 452 205 452 205 512 205 c 128,-1,13
 572 205 572 205 630 228 c 0,14,15
 686 252 686 252 729 295 c 128,-1,16
 772 338 772 338 796 394 c 0,17,18
 819 452 819 452 819 512 c 128,-1,19
 819 572 819 572 796 630 c 0,20,21
 772 686 772 686 729 729 c 128,-1,22
 686 772 686 772 630 796 c 0,23,0
 572 819 572 819 512 819 c 128,-1,1
512 1024 m 128,-1,25
 614 1024 614 1024 708 985 c 128,-1,26
 802 946 802 946 873 873 c 0,27,28
 946 802 946 802 985 708 c 128,-1,29
 1024 614 1024 614 1024 512 c 128,-1,30
 1024 410 1024 410 985 316 c 128,-1,31
 946 222 946 222 873 151 c 0,32,33
 802 78 802 78 708 39 c 128,-1,34
 614 0 614 0 512 0 c 128,-1,35
 410 0 410 0 316 39 c 128,-1,36
 222 78 222 78 151 151 c 0,37,38
 78 222 78 222 39 316 c 128,-1,39
 0 410 0 410 0 512 c 128,-1,40
 0 614 0 614 39 708 c 128,-1,41
 78 802 78 802 151 873 c 0,42,43
 222 946 222 946 316 985 c 128,-1,24
 410 1024 410 1024 512 1024 c 128,-1,25
EndSplineSet
Validated: 1
EndChar

StartChar: p
Encoding: 112 112 44
Width: 1227
Flags: W
LayerCount: 2
Fore
SplineSet
308 819 m 2,0,1
 288 819 288 819 269 811 c 0,2,3
 250 804 250 804 235 789 c 0,4,5
 220 772 220 772 213 756 c 0,6,7
 205 735 205 735 205 717 c 0,8,9
 205 697 205 697 213 678 c 0,10,11
 220 662 220 662 235 645 c 0,12,13
 252 628 252 628 269 623 c 0,14,15
 281 617 281 617 308 614 c 2,16,-1
 357 614 l 1,17,-1
 512 614 l 1,18,-1
 512 819 l 1,19,-1
 347 819 l 1,20,-1
 308 819 l 2,0,1
308 1024 m 2,21,22
 353 1024 l 2,23,-1
 922 1024 l 1,24,-1
 922 819 l 1,25,-1
 717 819 l 1,26,-1
 717 205 l 1,27,-1
 922 205 l 1,28,-1
 922 0 l 1,29,-1
 308 0 l 1,30,-1
 308 205 l 1,31,-1
 512 205 l 1,32,-1
 512 410 l 1,33,-1
 357 410 l 1,34,-1
 308 410 l 1,35,36
 217 422 217 422 190 433 c 0,37,38
 134 456 134 456 91 500 c 0,39,40
 47 543 47 543 24 599 c 0,41,42
 0 656 0 656 0 717 c 128,-1,43
 0 778 0 778 24 835 c 128,-1,44
 48 892 48 892 91 934 c 0,45,46
 134 978 134 978 190 1000 c 0,47,48
 251 1024 251 1024 308 1024 c 2,21,22
EndSplineSet
Validated: 1
EndChar

StartChar: q
Encoding: 113 113 45
Width: 1227
Flags: W
LayerCount: 2
Fore
SplineSet
0 0 m 1,0,-1
 0 82 l 1,1,-1
 110 200 l 1,2,3
 60 257 60 257 39 316 c 0,4,5
 0 426 0 426 0 512 c 0,6,7
 0 615 0 615 39 708 c 0,8,9
 77 799 77 799 151 873 c 128,-1,10
 225 947 225 947 316 985 c 0,11,12
 409 1024 409 1024 512 1024 c 128,-1,13
 615 1024 615 1024 708 985 c 0,14,15
 799 947 799 947 873 873 c 128,-1,16
 947 799 947 799 985 708 c 0,17,18
 1024 615 1024 615 1024 512 c 0,19,20
 1024 411 1024 411 985 316 c 0,21,22
 948 226 948 226 873 151 c 0,23,24
 801 79 801 79 709 39 c 0,25,26
 619 0 619 0 553 0 c 0,27,28
 547 0 547 0 541 0 c 0,29,30
 534 0 534 0 528 0 c 0,31,32
 520 0 520 0 512 0 c 0,33,34
 396 0 396 0 265 64 c 1,35,-1
 205 0 l 1,36,-1
 0 0 l 1,0,-1
249 350 m 1,37,-1
 394 507 l 1,38,-1
 546 367 l 1,39,-1
 411 222 l 1,40,41
 456 204 456 204 498 204 c 0,42,43
 500 204 500 204 502 205 c 2,44,-1
 507 205 l 0,45,46
 509 205 509 205 512 205 c 0,47,48
 572 205 572 205 630 228 c 0,49,50
 683 249 683 249 729 295 c 128,-1,51
 775 341 775 341 796 394 c 0,52,53
 819 452 819 452 819 512 c 0,54,55
 819 576 819 576 796 630 c 0,56,57
 772 686 772 686 729 729 c 0,58,59
 683 775 683 775 630 796 c 0,60,61
 572 819 572 819 512 819 c 0,62,63
 448 819 448 819 394 796 c 0,64,65
 338 772 338 772 295 729 c 0,66,67
 249 683 249 683 228 630 c 0,68,69
 205 572 205 572 205 512 c 0,70,71
 205 466 205 466 228 394 c 0,72,73
 236 369 236 369 249 350 c 1,37,-1
EndSplineSet
Validated: 1
EndChar

StartChar: r
Encoding: 114 114 46
Width: 1227
Flags: W
LayerCount: 2
Fore
SplineSet
542 410 m 1,0,-1
 250 0 l 5,1,-1
 0 0 l 1,2,-1
 305 429 l 1,3,4
 224 472 224 472 193 500 c 0,5,6
 152 537 152 537 126 599 c 0,7,8
 102 656 102 656 102 717 c 0,9,10
 102 776 102 776 126 835 c 0,11,12
 146 885 146 885 193 934 c 0,13,14
 235 978 235 978 292 1000 c 0,15,16
 323 1012 323 1012 410 1024 c 1,17,-1
 455 1024 l 1,18,-1
 1024 1024 l 1,19,-1
 1024 819 l 1,20,-1
 819 819 l 1,21,-1
 819 205 l 1,22,-1
 1024 205 l 1,23,-1
 1024 0 l 1,24,-1
 614 0 l 1,25,-1
 615 205 l 1,26,-1
 614 205 l 1,27,-1
 614 410 l 1,28,-1
 542 410 l 1,0,-1
410 819 m 2,29,30
 390 819 390 819 371 811 c 0,31,32
 352 804 352 804 337 789 c 0,33,34
 322 772 322 772 315 756 c 0,35,36
 307 735 307 735 307 717 c 0,37,38
 307 697 307 697 315 678 c 0,39,40
 322 662 322 662 337 645 c 0,41,42
 354 628 354 628 371 623 c 0,43,44
 383 617 383 617 410 614 c 2,45,-1
 459 614 l 1,46,-1
 614 614 l 1,47,-1
 614 819 l 1,48,-1
 449 819 l 1,49,-1
 410 819 l 2,29,30
EndSplineSet
Validated: 1
EndChar

StartChar: s
Encoding: 115 115 47
Width: 1227
Flags: W
LayerCount: 2
Fore
SplineSet
307 0 m 2,0,1
 246 0 246 0 189 24 c 0,2,3
 134 46 134 46 90 90 c 256,4,5
 46 134 46 134 24 189 c 0,6,7
 0 246 0 246 0 307 c 128,-1,8
 0 368 0 368 24 425 c 0,9,10
 46 482 46 482 90 524 c 0,11,12
 137 569 137 569 189 591 c 0,13,14
 244 614 244 614 307 614 c 2,15,-1
 718 614 l 1,16,-1
 719 614 l 2,17,18
 738 614 738 614 758 623 c 0,19,20
 779 633 779 633 790 645 c 0,21,22
 806 659 806 659 813 678 c 0,23,24
 821 699 821 699 821 717 c 128,-1,25
 821 735 821 735 813 756 c 0,26,27
 806 774 806 774 791 789 c 128,-1,28
 776 804 776 804 758 811 c 0,29,30
 737 819 737 819 719 819 c 2,31,-1
 309 819 l 2,32,33
 291 819 291 819 270 811 c 0,34,35
 255 805 255 805 238 788 c 152,-1,36
 221 771 221 771 215 756 c 0,37,38
 207 735 207 735 207 717 c 2,39,-1
 207 715 l 1,40,-1
 2 715 l 1,41,-1
 2 717 l 2,42,43
 2 778 2 778 26 835 c 0,44,45
 48 890 48 890 92 934 c 256,46,47
 136 978 136 978 191 1000 c 0,48,49
 248 1024 248 1024 309 1024 c 2,50,-1
 719 1024 l 2,51,52
 780 1024 780 1024 837 1000 c 0,53,54
 892 978 892 978 936 934 c 256,55,56
 980 890 980 890 1002 835 c 0,57,58
 1026 778 1026 778 1026 717 c 128,-1,59
 1026 656 1026 656 1002 599 c 0,60,61
 980 544 980 544 936 500 c 0,62,63
 897 461 897 461 837 433 c 0,64,65
 785 410 785 410 719 410 c 2,66,-1
 718 410 l 1,67,-1
 307 410 l 2,68,69
 288 410 288 410 268 401 c 256,70,71
 248 392 248 392 235 379 c 0,72,73
 220 364 220 364 213 346 c 0,74,75
 205 329 205 329 205 307 c 128,-1,76
 205 285 205 285 213 268 c 0,77,78
 220 249 220 249 235 236 c 0,79,80
 249 220 249 220 268 213 c 0,81,82
 289 205 289 205 307 205 c 2,83,-1
 309 205 l 1,84,-1
 719 205 l 2,85,86
 737 205 737 205 758 213 c 0,87,88
 773 219 773 219 790 236 c 152,-1,89
 807 253 807 253 813 268 c 0,90,91
 821 289 821 289 821 307 c 2,92,-1
 821 309 l 1,93,-1
 1026 309 l 1,94,-1
 1026 307 l 2,95,96
 1026 246 1026 246 1002 189 c 0,97,98
 980 134 980 134 936 90 c 256,99,100
 892 46 892 46 837 24 c 0,101,102
 780 0 780 0 719 0 c 2,103,-1
 307 0 l 2,0,1
EndSplineSet
Validated: 1
EndChar

StartChar: t
Encoding: 116 116 48
Width: 1227
Flags: W
LayerCount: 2
Fore
SplineSet
205 819 m 1024,0,-1
205 819 m 1024,1,-1
1024 1024 m 1,2,-1
 1024 614 l 1,3,-1
 819 614 l 1,4,-1
 819 819 l 1,5,-1
 614 819 l 1,6,-1
 614 205 l 1,7,-1
 819 205 l 1,8,-1
 819 0 l 1,9,-1
 205 0 l 1,10,-1
 205 205 l 1,11,-1
 410 205 l 1,12,-1
 410 819 l 1,13,-1
 205 819 l 1,14,-1
 205 614 l 1,15,-1
 0 614 l 1,16,-1
 0 1024 l 1,17,-1
 1024 1024 l 1,2,-1
EndSplineSet
Validated: 1
EndChar

StartChar: u
Encoding: 117 117 49
Width: 1227
Flags: W
LayerCount: 2
Fore
SplineSet
796 394 m 4,0,1
 819 451 819 451 819 614 c 6,2,-1
 819 1024 l 5,3,-1
 1024 1024 l 5,4,-1
 1024 614 l 6,5,6
 1024 410 1024 410 985 316 c 4,7,8
 947 225 947 225 873 151 c 132,-1,9
 799 77 799 77 708 39 c 4,10,11
 614 0 614 0 512 0 c 132,-1,12
 410 0 410 0 316 39 c 4,13,14
 225 77 225 77 151 151 c 4,15,16
 73 229 73 229 39 316 c 4,17,18
 0 416 0 416 0 614 c 6,19,-1
 0 1024 l 5,20,-1
 205 1024 l 5,21,-1
 205 614 l 6,22,23
 205 450 205 450 228 394 c 4,24,25
 250 340 250 340 295 295 c 4,26,27
 341 249 341 249 394 228 c 4,28,29
 452 205 452 205 512 205 c 4,30,31
 576 205 576 205 630 228 c 4,32,33
 686 252 686 252 729 295 c 4,34,35
 776 342 776 342 796 394 c 4,0,1
EndSplineSet
Validated: 1
EndChar

StartChar: v
Encoding: 118 118 50
Width: 1227
Flags: W
LayerCount: 2
Fore
SplineSet
512 298 m 1,0,-1
 803 1024 l 1,1,-1
 1024 1024 l 1,2,-1
 1024 819 l 1,3,-1
 942 819 l 1,4,-1
 614 0 l 1,5,-1
 410 0 l 1,6,-1
 82 819 l 1,7,-1
 0 819 l 1,8,-1
 0 1024 l 1,9,-1
 221 1024 l 1,10,-1
 512 298 l 1,0,-1
EndSplineSet
Validated: 1
EndChar

StartChar: w
Encoding: 119 119 51
Width: 1227
Flags: W
LayerCount: 2
Fore
SplineSet
1024 1024 m 5,0,-1
 950 0 l 5,1,-1
 612 0 l 5,2,-1
 510 307 l 5,3,-1
 408 0 l 5,4,-1
 70 0 l 5,5,-1
 -2 1024 l 5,6,-1
 207 1024 l 5,7,-1
 263 205 l 5,8,-1
 408 614 l 5,9,-1
 612 614 l 5,10,-1
 761 205 l 5,11,-1
 817 1024 l 5,12,-1
 1024 1024 l 5,0,-1
EndSplineSet
Validated: 1
EndChar

StartChar: x
Encoding: 120 120 52
Width: 1227
Flags: W
LayerCount: 2
Fore
SplineSet
1024 0 m 1,0,-1
 770 0 l 1,1,-1
 512 354 l 1,2,-1
 254 0 l 1,3,-1
 0 0 l 1,4,-1
 0 205 l 1,5,-1
 150 205 l 1,6,-1
 374 512 l 1,7,-1
 150 819 l 1,8,-1
 0 819 l 1,9,-1
 0 1024 l 1,10,-1
 254 1024 l 1,11,-1
 512 669 l 1,12,-1
 770 1024 l 1,13,-1
 1024 1024 l 1,14,-1
 1024 819 l 1,15,-1
 874 819 l 1,16,-1
 650 512 l 1,17,-1
 874 205 l 1,18,-1
 1024 205 l 1,19,-1
 1024 0 l 1,0,-1
EndSplineSet
Validated: 1
EndChar

StartChar: y
Encoding: 121 121 53
Width: 1227
Flags: W
LayerCount: 2
Fore
SplineSet
410 466 m 1,0,-1
 375 514 l 1,1,-1
 302 613 l 1,2,-1
 150 819 l 1,3,-1
 0 819 l 1,4,-1
 0 1024 l 1,5,-1
 254 1024 l 1,6,-1
 512 669 l 1,7,-1
 770 1024 l 1,8,-1
 1024 1024 l 1,9,-1
 1024 819 l 1,10,-1
 874 819 l 1,11,-1
 651 514 l 1,12,-1
 614 464 l 1,13,-1
 614 0 l 1,14,-1
 410 0 l 1,15,-1
 410 466 l 1,0,-1
EndSplineSet
Validated: 1
EndChar

StartChar: z
Encoding: 122 122 54
Width: 1227
Flags: W
LayerCount: 2
Fore
SplineSet
713 205 m 1024,0,-1
205 205 m 1024,1,-1
311 819 m 1024,2,-1
205 205 m 1024,3,-1
0 1024 m 1,4,-1
 1024 1024 l 1,5,-1
 1024 614 l 1,6,-1
 819 614 l 1,7,-1
 819 819 l 1,8,-1
 313 819 l 1,9,-1
 1024 205 l 1,10,-1
 1024 0 l 1,11,-1
 0 0 l 1,12,-1
 0 410 l 1,13,-1
 205 410 l 1,14,-1
 205 205 l 1,15,-1
 711 205 l 1,16,-1
 0 819 l 1,17,-1
 0 1024 l 1,4,-1
EndSplineSet
Validated: 1
EndChar

StartChar: zero
Encoding: 48 48 55
Width: 1227
Flags: W
LayerCount: 2
Fore
SplineSet
794 634 m 1050,0,-1
552 719 m 1,1,-1
 623 799 l 1,2,3
 576 819 576 819 512 819 c 128,-1,4
 448 819 448 819 394 796 c 0,5,6
 338 772 338 772 295 729 c 0,7,8
 249 683 249 683 228 630 c 0,9,10
 205 572 205 572 205 512 c 0,11,12
 205 448 205 448 228 394 c 0,13,14
 236 376 236 376 243 363 c 1,15,-1
 322 454 l 1,16,-1
 552 719 l 1,1,-1
488 327 m 1,17,-1
 400 226 l 1,18,19
 455 205 455 205 512 205 c 0,20,21
 576 205 576 205 630 228 c 0,22,23
 686 252 686 252 729 295 c 0,24,25
 775 341 775 341 796 394 c 0,26,27
 819 452 819 452 819 512 c 0,28,29
 819 584 819 584 796 630 c 0,30,31
 792 638 792 638 779 663 c 1,32,-1
 721 597 l 1,33,-1
 488 327 l 1,17,-1
512 1024 m 128,-1,35
 614 1024 614 1024 708 985 c 128,-1,36
 802 946 802 946 873 873 c 0,37,38
 946 802 946 802 985 708 c 128,-1,39
 1024 614 1024 614 1024 512 c 128,-1,40
 1024 410 1024 410 985 316 c 128,-1,41
 946 222 946 222 873 151 c 0,42,43
 802 78 802 78 708 39 c 128,-1,44
 614 0 614 0 512 0 c 128,-1,45
 410 0 410 0 316 39 c 128,-1,46
 222 78 222 78 151 151 c 0,47,48
 78 222 78 222 39 316 c 128,-1,49
 0 410 0 410 0 512 c 128,-1,50
 0 614 0 614 39 708 c 128,-1,51
 78 802 78 802 151 873 c 0,52,53
 222 946 222 946 316 985 c 128,-1,34
 410 1024 410 1024 512 1024 c 128,-1,35
EndSplineSet
Validated: 1
EndChar

StartChar: one
Encoding: 49 49 56
Width: 1227
Flags: W
LayerCount: 2
Fore
SplineSet
0 0 m 1,0,-1
 0 205 l 1,1,-1
 410 205 l 1,2,-1
 410 819 l 1,3,-1
 327 819 l 1,4,-1
 246 737 l 1,5,-1
 122 614 l 1,6,-1
 0 612 l 1,7,-1
 0 693 l 1,8,-1
 0 778 l 1,9,-1
 246 1024 l 1,10,-1
 614 1024 l 1,11,-1
 614 205 l 1,12,-1
 1023 205 l 1,13,-1
 1023 0 l 1,14,-1
 0 0 l 1,0,-1
EndSplineSet
Validated: 1
EndChar

StartChar: two
Encoding: 50 50 57
Width: 1227
Flags: W
LayerCount: 2
Fore
SplineSet
0 0 m 2,0,1
 0 205 l 257,2,-1
 758 623 l 2,3,4
 773 631 773 631 790 645 c 0,5,6
 806 659 806 659 813 678 c 0,7,8
 821 699 821 699 821 717 c 128,-1,9
 821 735 821 735 813 756 c 0,10,11
 806 774 806 774 791 789 c 128,-1,12
 776 804 776 804 758 811 c 0,13,14
 737 819 737 819 719 819 c 2,15,-1
 309 819 l 2,16,17
 285 819 285 819 268.5 810.5 c 128,-1,18
 252 802 252 802 237.5 788 c 128,-1,19
 223 774 223 774 215 756 c 0,20,21
 207 735 207 735 207 717 c 2,22,-1
 207 614 l 1,23,-1
 2 614 l 1,24,-1
 2 717 l 2,25,26
 2 776 2 776 26 835 c 0,27,28
 48 890 48 890 92 934 c 256,29,30
 136 978 136 978 191 1000 c 0,31,32
 248 1024 248 1024 309 1024 c 2,33,-1
 719 1024 l 2,34,35
 777 1024 777 1024 837 1000 c 0,36,37
 892 978 892 978 936 934 c 256,38,39
 980 890 980 890 1002 835 c 0,40,41
 1026 778 1026 778 1026 717 c 0,42,43
 1026 659 1026 659 1002 599 c 0,44,45
 980 544 980 544 936 500 c 0,46,47
 908 472 908 472 837 433 c 2,48,-1
 422 205 l 1,49,-1
 1023 205 l 1,50,-1
 1023 0 l 1,51,-1
 0 0 l 2,0,1
EndSplineSet
Validated: 1
EndChar

StartChar: three
Encoding: 51 51 58
Width: 1227
Flags: W
LayerCount: 2
Fore
SplineSet
677 410 m 1,0,-1
 205 410 l 1,1,-1
 205 614 l 1,2,-1
 667 614 l 1,3,-1
 716 614 l 2,4,5
 737 614 737 614 755 622 c 0,6,7
 777 632 777 632 789 644 c 0,8,9
 802 657 802 657 811 677 c 0,10,11
 819 695 819 695 819 716 c 0,12,13
 819 736 819 736 811 755 c 0,14,15
 802 775 802 775 789 788 c 0,16,17
 774 803 774 803 755 810 c 0,18,19
 731 819 731 819 716 819 c 2,20,-1
 677 819 l 1,21,-1
 0 819 l 1,22,-1
 0 1024 l 1,23,-1
 410 1024 l 1,24,-1
 671 1024 l 2,25,26
 778 1024 778 1024 834 1000 c 0,27,28
 895 974 895 974 933 934 c 0,29,30
 980 885 980 885 1000 835 c 0,31,32
 1024 775 1024 775 1024 717 c 0,33,34
 1024 664 1024 664 1000 599 c 0,35,36
 983 553 983 553 946 513 c 1,37,-1
 946 512 l 1,38,39
 984 468 984 468 1000 425 c 0,40,41
 1024 360 1024 360 1024 307 c 0,42,43
 1024 248 1024 248 1000 189 c 0,44,45
 980 139 980 139 933 90 c 0,46,47
 891 46 891 46 834 24 c 0,48,49
 772 0 772 0 667 0 c 2,50,-1
 0 0 l 1,51,-1
 0 205 l 1,52,-1
 667 205 l 1,53,-1
 716 205 l 2,54,55
 737 205 737 205 755 213 c 0,56,57
 777 223 777 223 789 235 c 0,58,59
 802 248 802 248 811 268 c 0,60,61
 819 286 819 286 819 307 c 0,62,63
 819 327 819 327 811 346 c 0,64,65
 802 366 802 366 789 379 c 0,66,67
 774 394 774 394 755 401 c 0,68,69
 731 410 731 410 716 410 c 2,70,-1
 677 410 l 1,0,-1
EndSplineSet
Validated: 1
EndChar

StartChar: four
Encoding: 52 52 59
Width: 1227
Flags: W
LayerCount: 2
Fore
SplineSet
410 410 m 1,0,-1
 0 410 l 1,1,-1
 0 614 l 1,2,-1
 410 1024 l 1,3,-1
 819 1024 l 1,4,-1
 819 819 l 1,5,-1
 819 614 l 1,6,-1
 1023 614 l 1,7,-1
 1023 410 l 1,8,-1
 819 410 l 5,9,-1
 819 205 l 1,10,-1
 1024 205 l 1,11,-1
 1024 0 l 1,12,-1
 410 0 l 1,13,-1
 410 205 l 1,14,-1
 614 205 l 1,15,-1
 614 410 l 1,16,-1
 410 410 l 1,0,-1
410 614 m 1,17,-1
 614 614 l 1,18,-1
 614 819 l 1,19,-1
 497 819 l 1,20,-1
 290 614 l 1,21,-1
 410 614 l 1,17,-1
EndSplineSet
Validated: 1
EndChar

StartChar: five
Encoding: 53 53 60
Width: 1227
Flags: W
LayerCount: 2
Fore
SplineSet
719 0 m 1,0,1
 0 0 l 1,2,-1
 0 205 l 1,3,-1
 717 205 l 1,4,-1
 719 205 l 2,5,6
 737 205 737 205 758 213 c 0,7,8
 774 219 774 219 791 236 c 0,9,10
 804 249 804 249 813 268 c 0,11,12
 821 285 821 285 821 307 c 0,13,14
 821 325 821 325 813 346 c 0,15,16
 806 364 806 364 791 379 c 0,17,18
 778 392 778 392 758 401 c 256,19,20
 738 410 738 410 719 410 c 2,21,-1
 0 410 l 1,22,-1
 0 1024 l 1,23,-1
 1023 1024 l 1,24,-1
 1023 820 l 1,25,-1
 205 819 l 1,26,-1
 205 614 l 1,27,-1
 719 614 l 2,28,29
 782 614 782 614 837 591 c 0,30,31
 889 569 889 569 936 524 c 0,32,33
 977 485 977 485 1002 425 c 0,34,35
 1026 368 1026 368 1026 307 c 0,36,37
 1026 249 1026 249 1002 189 c 0,38,39
 980 134 980 134 936 90 c 256,40,41
 892 46 892 46 837 24 c 0,42,43
 780 0 780 0 719 0 c 1,0,1
EndSplineSet
Validated: 1
EndChar

StartChar: six
Encoding: 54 54 61
Width: 1227
Flags: W
LayerCount: 2
Fore
SplineSet
307 410 m 2,0,1
 290 410 290 410 268 401 c 256,2,3
 248 393 248 393 235 379 c 0,4,5
 220 364 220 364 213 346 c 0,6,7
 205 329 205 329 205 307 c 128,-1,8
 205 285 205 285 213 268 c 0,9,10
 220 249 220 249 235 236 c 0,11,12
 249 220 249 220 268 213 c 0,13,14
 289 205 289 205 307 205 c 2,15,-1
 309 205 l 1,16,-1
 717 205 l 1,17,-1
 719 205 l 2,18,19
 737 205 737 205 758 213 c 0,20,21
 774 219 774 219 791 236 c 0,22,23
 804 249 804 249 813 268 c 0,24,25
 821 285 821 285 821 307 c 0,26,27
 821 325 821 325 813 346 c 0,28,29
 806 364 806 364 791 379 c 0,30,31
 778 392 778 392 758 401 c 256,32,33
 737 410 737 410 719 410 c 2,34,-1
 307 410 l 2,0,1
307 614 m 2,35,36
 308 614 l 1,37,-1
 719 614 l 2,38,39
 782 614 782 614 837 591 c 0,40,41
 889 569 889 569 936 524 c 0,42,43
 977 485 977 485 1002 425 c 0,44,45
 1026 368 1026 368 1026 307 c 0,46,47
 1026 249 1026 249 1002 189 c 0,48,49
 980 134 980 134 936 90 c 256,50,51
 892 46 892 46 837 24 c 0,52,53
 777 0 777 0 719 0 c 2,54,-1
 307 0 l 0,55,56
 249 0 249 0 189 24 c 0,57,58
 134 46 134 46 90 90 c 256,59,60
 46 134 46 134 24 189 c 0,61,62
 0 249 0 249 0 307 c 2,63,-1
 0 309 l 1,64,-1
 0 717 l 2,65,66
 0 775 0 775 24 835 c 0,67,68
 46 890 46 890 90 934 c 256,69,70
 134 978 134 978 189 1000 c 0,71,72
 249 1024 249 1024 307 1024 c 2,73,-1
 717 1024 l 1,74,75
 821 1024 l 1,76,-1
 821 819 l 1,77,-1
 717 819 l 1,78,-1
 307 819 l 2,79,80
 289 819 289 819 268 811 c 0,81,82
 250 804 250 804 235 789 c 128,-1,83
 220 774 220 774 213 756 c 0,84,85
 205 735 205 735 205 717 c 0,86,-1
 205 596 l 1,87,88
 251 614 251 614 307 614 c 2,35,36
EndSplineSet
Validated: 1
EndChar

StartChar: seven
Encoding: 55 55 62
Width: 1227
VWidth: 0
Flags: W
LayerCount: 2
Fore
SplineSet
0 1024 m 25,0,-1
 1024 1024 l 1,1,-1
 1024 819 l 1,2,-1
 871 614 l 1,3,-1
 1024 614 l 1,4,-1
 1024 410 l 1,5,-1
 717 410 l 1,6,-1
 410 0 l 1,7,-1
 155 0 l 1,8,-1
 464 410 l 1,9,-1
 205 410 l 1,10,-1
 205 614 l 1,11,-1
 618 614 l 1,12,-1
 773 819 l 1,13,-1
 0 819 l 1,14,-1
 0 1024 l 25,0,-1
EndSplineSet
Validated: 1
EndChar

StartChar: eight
Encoding: 56 56 63
Width: 1227
Flags: W
LayerCount: 2
Fore
SplineSet
357 0 m 2,0,1
 252 0 252 0 190 24 c 0,2,3
 133 46 133 46 91 90 c 0,4,5
 44 139 44 139 24 189 c 0,6,7
 0 248 0 248 0 307 c 0,8,9
 0 360 0 360 24 425 c 0,10,11
 40 468 40 468 78 512 c 1,12,-1
 78 513 l 1,13,14
 41 553 41 553 24 599 c 0,15,16
 0 664 0 664 0 717 c 0,17,18
 0 778 0 778 24 835 c 0,19,20
 44 885 44 885 91 934 c 0,21,22
 131 976 131 976 190 1000 c 128,-1,23
 249 1024 249 1024 353 1024 c 2,24,-1
 671 1024 l 2,25,26
 775 1024 775 1024 834 1000 c 128,-1,27
 893 976 893 976 933 934 c 0,28,29
 980 885 980 885 1000 835 c 0,30,31
 1024 778 1024 778 1024 717 c 0,32,33
 1024 664 1024 664 1000 599 c 0,34,35
 983 553 983 553 946 513 c 1,36,-1
 946 512 l 1,37,38
 984 468 984 468 1000 425 c 0,39,40
 1024 360 1024 360 1024 307 c 0,41,42
 1024 248 1024 248 1000 189 c 0,43,44
 980 139 980 139 933 90 c 0,45,46
 891 46 891 46 834 24 c 0,47,48
 772 0 772 0 667 0 c 2,49,-1
 357 0 l 2,0,1
667 614 m 1,50,-1
 716 614 l 2,51,52
 737 614 737 614 755 622 c 0,53,54
 777 632 777 632 789 644 c 0,55,56
 804 661 804 661 811 677 c 0,57,58
 819 698 819 698 819 716 c 0,59,60
 819 736 819 736 811 755 c 0,61,62
 802 775 802 775 789 788 c 0,63,64
 774 803 774 803 755 810 c 0,65,66
 731 819 731 819 716 819 c 2,67,-1
 677 819 l 1,68,-1
 347 819 l 1,69,-1
 308 819 l 2,70,71
 293 819 293 819 269 810 c 0,72,73
 250 803 250 803 235 788 c 0,74,75
 222 775 222 775 213 755 c 0,76,77
 205 736 205 736 205 716 c 0,78,79
 205 698 205 698 213 677 c 0,80,81
 220 661 220 661 235 644 c 0,82,83
 247 632 247 632 269 622 c 0,84,85
 287 614 287 614 308 614 c 2,86,-1
 357 614 l 1,87,-1
 667 614 l 1,50,-1
667 205 m 1,88,-1
 716 205 l 2,89,90
 737 205 737 205 755 213 c 0,91,92
 777 223 777 223 789 235 c 0,93,94
 804 252 804 252 811 268 c 0,95,96
 819 289 819 289 819 307 c 0,97,98
 819 327 819 327 811 346 c 0,99,100
 802 366 802 366 789 379 c 0,101,102
 774 394 774 394 755 401 c 0,103,104
 731 410 731 410 716 410 c 2,105,-1
 677 410 l 1,106,-1
 347 410 l 1,107,-1
 308 410 l 2,108,109
 293 410 293 410 269 401 c 0,110,111
 250 394 250 394 235 379 c 0,112,113
 222 366 222 366 213 346 c 0,114,115
 205 327 205 327 205 307 c 0,116,117
 205 289 205 289 213 268 c 0,118,119
 220 252 220 252 235 235 c 0,120,121
 247 223 247 223 269 213 c 0,122,123
 287 205 287 205 308 205 c 2,124,-1
 357 205 l 1,125,-1
 667 205 l 1,88,-1
EndSplineSet
Validated: 1
EndChar

StartChar: nine
Encoding: 57 57 64
Width: 1227
Flags: W
LayerCount: 2
Fore
SplineSet
719 614 m 2,0,1
 736 614 736 614 758 623 c 256,2,3
 778 631 778 631 791 645 c 0,4,5
 806 660 806 660 813 678 c 0,6,7
 821 695 821 695 821 717 c 128,-1,8
 821 739 821 739 813 756 c 0,9,10
 806 775 806 775 791 788 c 0,11,12
 777 804 777 804 758 811 c 0,13,14
 737 819 737 819 719 819 c 2,15,-1
 717 819 l 1,16,-1
 309 819 l 1,17,-1
 307 819 l 2,18,19
 289 819 289 819 268 811 c 0,20,21
 252 805 252 805 235 788 c 0,22,23
 222 775 222 775 213 756 c 0,24,25
 205 739 205 739 205 717 c 0,26,27
 205 699 205 699 213 678 c 0,28,29
 220 660 220 660 235 645 c 0,30,31
 248 632 248 632 268 623 c 256,32,33
 289 614 289 614 307 614 c 2,34,-1
 719 614 l 2,0,1
719 410 m 2,35,36
 718 410 l 1,37,-1
 307 410 l 2,38,39
 244 410 244 410 189 433 c 0,40,41
 137 455 137 455 90 500 c 0,42,43
 49 539 49 539 24 599 c 0,44,45
 0 656 0 656 0 717 c 0,46,47
 0 775 0 775 24 835 c 0,48,49
 46 890 46 890 90 934 c 256,50,51
 134 978 134 978 189 1000 c 0,52,53
 249 1024 249 1024 307 1024 c 2,54,-1
 719 1024 l 0,55,56
 777 1024 777 1024 837 1000 c 0,57,58
 892 978 892 978 936 934 c 256,59,60
 980 890 980 890 1002 835 c 0,61,62
 1026 775 1026 775 1026 717 c 2,63,-1
 1026 715 l 1,64,-1
 1026 307 l 2,65,66
 1026 249 1026 249 1002 189 c 0,67,68
 980 134 980 134 936 90 c 256,69,70
 892 46 892 46 837 24 c 0,71,72
 777 0 777 0 719 0 c 2,73,-1
 309 0 l 1,74,75
 205 0 l 1,76,-1
 205 205 l 1,77,-1
 309 205 l 1,78,-1
 719 205 l 2,79,80
 737 205 737 205 758 213 c 0,81,82
 776 220 776 220 791 235 c 128,-1,83
 806 250 806 250 813 268 c 0,84,85
 821 289 821 289 821 307 c 0,86,-1
 821 428 l 1,87,88
 775 410 775 410 719 410 c 2,35,36
EndSplineSet
Validated: 1
EndChar

StartChar: plus
Encoding: 43 43 65
Width: 1227
VWidth: 0
Flags: W
LayerCount: 2
Fore
SplineSet
410 1024 m 29,0,-1
 614 1024 l 29,1,-1
 614 614 l 29,2,-1
 1024 614 l 29,3,-1
 1024 410 l 5,4,-1
 614 410 l 29,5,-1
 614 0 l 5,6,-1
 410 0 l 29,7,-1
 410 410 l 29,8,-1
 0 410 l 29,9,-1
 0 614 l 29,10,-1
 410 614 l 29,11,-1
 410 1024 l 29,0,-1
EndSplineSet
Validated: 1
EndChar

StartChar: hyphen
Encoding: 45 45 66
Width: 1227
VWidth: 0
Flags: W
LayerCount: 2
Fore
SplineSet
614 614 m 25,0,-1
 1024 614 l 25,1,-1
 1024 410 l 1,2,-1
 614 410 l 25,3,-1
 410 410 l 25,4,-1
 0 410 l 25,5,-1
 0 614 l 25,6,-1
 410 614 l 25,7,-1
 614 614 l 25,0,-1
EndSplineSet
Validated: 1
EndChar

StartChar: equal
Encoding: 61 61 67
Width: 1227
VWidth: 0
Flags: W
LayerCount: 2
Fore
SplineSet
0 410 m 25,0,-1
 1024 410 l 1,1,-1
 1024 205 l 25,2,-1
 0 205 l 1,3,-1
 0 410 l 25,0,-1
0 819 m 1,4,-1
 1024 819 l 25,5,-1
 1024 614 l 1,6,-1
 0 614 l 25,7,-1
 0 819 l 1,4,-1
EndSplineSet
Validated: 1
EndChar
